<svg xmlns="http://www.w3.org/2000/svg" viewBox="0 0 200 200">
  <!-- Tło kosmosu -->
  <rect width="200" height="200" fill="#050520" rx="20" ry="20"/>
  
  <!-- Gwiazdy -->
  <circle cx="30" cy="40" r="1.5" fill="white" opacity="0.8"/>
  <circle cx="50" cy="25" r="1" fill="white" opacity="0.6"/>
  <circle cx="70" cy="15" r="1.5" fill="white" opacity="0.7"/>
  <circle cx="100" cy="30" r="1" fill="white" opacity="0.9"/>
  <circle cx="120" cy="20" r="1" fill="white" opacity="0.7"/>
  <circle cx="140" cy="45" r="1.5" fill="white" opacity="0.8"/>
  <circle cx="175" cy="30" r="1" fill="white" opacity="0.6"/>
  <circle cx="160" cy="15" r="1.5" fill="white" opacity="0.9"/>
  <circle cx="15" cy="60" r="1" fill="white" opacity="0.8"/>
  <circle cx="35" cy="75" r="1.5" fill="white" opacity="0.6"/>
  <circle cx="185" cy="65" r="1" fill="white" opacity="0.7"/>
  <circle cx="20" cy="150" r="1.5" fill="white" opacity="0.8"/>
  <circle cx="40" cy="130" r="1" fill="white" opacity="0.6"/>
  <circle cx="165" cy="145" r="1.5" fill="white" opacity="0.7"/>
  <circle cx="185" cy="175" r="1" fill="white" opacity="0.8"/>
  <circle cx="150" cy="165" r="1" fill="white" opacity="0.6"/>
  
  <!-- Meteor w tle -->
  <circle cx="165" cy="105" r="12" fill="#888"/>
  <circle cx="163" cy="102" r="3" fill="#666"/>
  <circle cx="169" cy="108" r="2" fill="#666"/>
  
  <!-- Statek kosmiczny gracza -->
  <g transform="translate(100, 100) scale(1.2)">
    <polygon points="0,-30 -15,10 0,0 15,10" fill="#4AF"/>
    <rect x="-8" y="0" width="16" height="10" fill="#4AF"/>
    <rect x="-12" y="10" width="24" height="5" fill="#4AF"/>
    <polygon points="-20,15 -12,15 -12,25 -20,30" fill="#4AF"/>
    <polygon points="20,15 12,15 12,25 20,30" fill="#4AF"/>
    <rect x="-2" y="-35" width="4" height="10" fill="#FF0"/>
  </g>
  
  <!-- Wróg -->
  <g transform="translate(50, 60)">
    <rect x="-12" y="-12" width="24" height="24" fill="#F44"/>
    <rect x="-8" y="-16" width="16" height="4" fill="#F44"/>
    <rect x="-4" y="12" width="8" height="4" fill="#F44"/>
  </g>
  
  <!-- Laser -->
  <line x1="100" y1="65" x2="100" y2="45" stroke="#FF0" stroke-width="3"/>
  <circle cx="100" cy="42" r="2" fill="#FF0"/>
  
  <!-- Eksplozja -->
  <g transform="translate(145, 40)">
    <circle cx="0" cy="0" r="8" fill="#F90"/>
    <circle cx="0" cy="0" r="5" fill="#FF0"/>
    <path d="M0,-12 L2,-5 L8,-8 L4,-2 L12,0 L4,2 L8,8 L2,5 L0,12 L-2,5 L-8,8 L-4,2 L-12,0 L-4,-2 L-8,-8 L-2,-5 Z" fill="#F60" opacity="0.8"/>
  </g>
  
  <!-- Napis PLAY -->
  <g transform="translate(100, 170)">
    <rect x="-30" y="-15" width="60" height="30" rx="15" ry="15" fill="#4CAF50"/>
    <text x="0" y="5" font-family="Arial, sans-serif" font-size="16" font-weight="bold" text-anchor="middle" fill="white">GRAJ</text>
  </g>
</svg>